PathFileType	4	(X/Y/Z)	./resultDataOpenSim/trcMotMarkerGrf/sub06/qtm-12-08.trc
DataRate	CameraRate	NumFrames	NumMarkers	Units	OrigDataRate	OrigDataStartFrame	OrigNumFrames
250.000000	250.000000	14	24	m	250.000000	260	519
Frame#	Time	L.Toe.Tip			R.Toe.Tip			L.Ankle.Lat			R.Ankle.Lat			L.Ankle.Med			R.Ankle.Med			L.Heel			R.Heel			L.Knee.Lat			R.Knee.Lat			L.Knee.Med			R.Knee.Med			L.Thigh.Upper			R.Thigh.Upper			L.ASIS			R.ASIS			V.Sacral			L.Acromium			R.Acromium			C7			L.Elbow			R.Elbow			L.Wrist.Lat			R.Wrist.Lat
		X1	Y1	Z1	X2	Y2	Z2	X3	Y3	Z3	X4	Y4	Z4	X5	Y5	Z5	X6	Y6	Z6	X7	Y7	Z7	X8	Y8	Z8	X9	Y9	Z9	X10	Y10	Z10	X11	Y11	Z11	X12	Y12	Z12	X13	Y13	Z13	X14	Y14	Z14	X15	Y15	Z15	X16	Y16	Z16	X17	Y17	Z17	X18	Y18	Z18	X19	Y19	Z19	X20	Y20	Z20	X21	Y21	Z21	X22	Y22	Z22	X23	Y23	Z23	X24	Y24	Z24

260	1.036	0.11815364	0.0084852943	-0.043141756	0.767018	0.12645363	0.15154268	0.0060095963	0.065838504	-0.069297352	0.63240722	0.093595818	0.16294355	0.010435302	0.08148754	0.017644562	0.64868264	0.12423018	0.078164511	-0.071923095	0.056671497	-0.023048164	0.60008978	0.050304839	0.098303851	0.16567287	0.4027592	-0.089662405	0.5117012	0.46306092	0.15980709	0.15415957	0.40839868	0.03074311	0.49319108	0.43005973	0.031190417	0.25718362	0.77596953	-0.1564668	0.31109583	0.77386763	0.18966365	0.34643721	0.81886493	-0.12547455	0.38393142	0.83043316	0.12060564	0.18280889	0.89909	0.024299318	0.33051037	1.3123843	-0.16890387	0.29422761	1.2894936	0.19175447	0.23835131	1.3406584	0.0035862159	0.35838257	0.98916761	-0.25869797	0.13186654	1.0191903	0.24171963	0.60042693	0.94875897	-0.19339576	0.1833431	0.79041907	0.29929574
261	1.04	0.11818513	0.0084754709	-0.043169956	0.77528412	0.12643982	0.15060445	0.0069412236	0.066752028	-0.069478705	0.6407868	0.092731885	0.1616158	0.011371049	0.082391809	0.017471157	0.65708383	0.12348806	0.076900082	-0.071232378	0.058449309	-0.023331971	0.6089702	0.049194971	0.096819902	0.17016923	0.40207518	-0.089590839	0.51904212	0.46180557	0.15933738	0.15928392	0.4075128	0.030704945	0.50000279	0.4289968	0.030573565	0.26283833	0.77485355	-0.15585687	0.31903258	0.77243106	0.18987225	0.35247914	0.81773767	-0.12550881	0.39126759	0.82908986	0.1203798	0.1893771	0.89775715	0.025406463	0.3365632	1.3111026	-0.1686143	0.30055101	1.288052	0.19216142	0.24456442	1.3393594	0.0041033475	0.36661009	0.98774192	-0.25885969	0.13822671	1.0177683	0.24192662	0.60848204	0.94990052	-0.19202616	0.18849975	0.78900687	0.30011937
262	1.044	0.11822437	0.0084619316	-0.043189937	0.78302471	0.12595282	0.14952332	0.0079350144	0.067740772	-0.069654044	0.64858862	0.091635362	0.16014727	0.012392854	0.083406617	0.017321459	0.66494542	0.12258266	0.07550223	-0.070483936	0.060337807	-0.023599228	0.61719847	0.047977315	0.095174695	0.17474613	0.40140275	-0.089533291	0.52629376	0.46060313	0.15888173	0.16448749	0.40664776	0.030694135	0.50682544	0.42818407	0.029989177	0.2686025	0.77374755	-0.15525223	0.32713198	0.77118795	0.19019706	0.35844906	0.81667823	-0.12547129	0.39871152	0.82782263	0.12016826	0.19604744	0.89653042	0.026549089	0.34260516	1.3098524	-0.16829329	0.30692601	1.2866377	0.19259704	0.25085553	1.3380617	0.0046218779	0.37495841	0.98630508	-0.25881587	0.14467195	1.0163543	0.2421557	0.61645021	0.95092766	-0.19067756	0.19381849	0.78762195	0.30094532
263	1.048	0.11826957	0.0084464104	-0.043206187	0.79025024	0.12500564	0.14828849	0.008975991	0.068810493	-0.069834839	0.65585813	0.090295618	0.15855222	0.013503673	0.084507407	0.017169221	0.67227482	0.12151529	0.07399749	-0.06965834	0.062355169	-0.023832932	0.62476281	0.046659328	0.093395194	0.17941054	0.40075099	-0.089493518	0.53343588	0.4594253	0.15841157	0.16977015	0.40581165	0.030711488	0.51368344	0.42758508	0.029443942	0.27448017	0.77265561	-0.15465748	0.33536309	0.77014397	0.19063322	0.36436278	0.81567934	-0.12537048	0.40630268	0.82664904	0.11999522	0.20294523	0.8953225	0.028043857	0.34865344	1.3086366	-0.16793409	0.31336916	1.2852562	0.19306518	0.25726351	1.3367722	0.00508535	0.38324348	0.98489498	-0.25851904	0.15121513	1.0149581	0.24239991	0.62433024	0.95183988	-0.18935096	0.19928102	0.78626515	0.30177144
264	1.052	0.11832174	0.0084338625	-0.043221924	0.79697933	0.12360873	0.14688957	0.010072486	0.069958967	-0.070040811	0.66262971	0.088717514	0.15684963	0.014687952	0.085666674	0.016981105	0.67908652	0.12026806	0.072411913	-0.068736104	0.064508393	-0.024040471	0.63165475	0.045245299	0.091518368	0.18417366	0.40012423	-0.089465493	0.54046944	0.45824468	0.15791204	0.17510866	0.40501255	0.030765195	0.52059109	0.4271701	0.028940202	0.28047529	0.77158201	-0.15407351	0.34359861	0.76926142	0.19111551	0.37034047	0.81471503	-0.12526445	0.41399057	0.82553506	0.11983844	0.21005644	0.89408415	0.030013367	0.35471939	1.3074588	-0.16753238	0.31988463	1.2839117	0.19356749	0.26378698	1.3355066	0.0054786325	0.39129013	0.98355121	-0.25794557	0.15785911	1.0135893	0.24265425	0.6321207	0.95263978	-0.18804966	0.20490676	0.78493576	0.30259925
265	1.056	0.11838831	0.008428261	-0.043232027	0.80324437	0.12176726	0.14530939	0.011242556	0.071185224	-0.070285237	0.66891557	0.08692098	0.1550647	0.015924207	0.086877297	0.016738876	0.68538961	0.11882221	0.070768455	-0.067709057	0.066789639	-0.024264475	0.63788548	0.043730627	0.089594351	0.18904668	0.39952028	-0.089445202	0.54741129	0.45704089	0.15738894	0.18045995	0.4042585	0.030868925	0.52754875	0.42691932	0.028475058	0.28658886	0.77052707	-0.15349789	0.35170738	0.76849144	0.19157301	0.37650017	0.81376266	-0.12520398	0.42170316	0.82443439	0.11966392	0.21729611	0.89284697	0.032244109	0.36080167	1.3063239	-0.16709184	0.32646901	1.2826078	0.19410414	0.27036131	1.3342862	0.0058715682	0.39901516	0.9822976	-0.25710772	0.16460435	1.0122534	0.2429241	0.63982067	0.95333067	-0.18677554	0.21069651	0.78363521	0.30342892
266	1.06	0.1184816	0.0084336082	-0.043229627	0.80906836	0.11950436	0.14352649	0.012498219	0.072490674	-0.070568656	0.67471283	0.084934786	0.15322554	0.017210695	0.088149349	0.016439922	0.69116493	0.11717305	0.069098381	-0.066580997	0.069186389	-0.024549445	0.6434797	0.042105718	0.087676289	0.19404118	0.39893364	-0.089433534	0.55428802	0.45580512	0.15686406	0.18581939	0.40354975	0.031014334	0.53456187	0.42681362	0.028045969	0.29281892	0.76948567	-0.15292841	0.35964732	0.76780998	0.19198342	0.38285959	0.81281915	-0.12519059	0.42940806	0.82333437	0.11946168	0.22458414	0.89166945	0.034435303	0.36689385	1.3052372	-0.16662052	0.33312093	1.2813474	0.19467502	0.27689599	1.3331313	0.0063841047	0.40643053	0.98114009	-0.25604547	0.17145538	1.0109496	0.24321977	0.64743107	0.95391525	-0.1855277	0.2165996	0.78236261	0.30425159
267	1.064	0.11861094	0.0084547787	-0.043222552	0.81445151	0.11686872	0.14152895	0.013840696	0.07387551	-0.070880605	0.68001906	0.082790118	0.15135843	0.018583968	0.089506977	0.016094843	0.69640175	0.11531766	0.067428174	-0.065359937	0.071689471	-0.024915322	0.64845832	0.040360688	0.085803044	0.19917421	0.39835735	-0.089429076	0.56112329	0.45454162	0.1563641	0.19128171	0.40286674	0.031144215	0.54164825	0.42682433	0.027660643	0.29916486	0.76845557	-0.15236143	0.3674661	0.76721509	0.1923746	0.38936698	0.81189266	-0.12519544	0.43710897	0.82225877	0.11924618	0.23187859	0.89058516	0.036421803	0.3729964	1.3042033	-0.16612212	0.33984014	1.2801314	0.19527909	0.28334113	1.332046	0.0070952586	0.41359585	0.98007511	-0.25481011	0.1784141	1.0096744	0.24354568	0.65495264	0.95439474	-0.18430535	0.22259172	0.78111566	0.30505598
268	1.068	0.11877591	0.0084927379	-0.04323801	0.819386	0.11391792	0.13932182	0.015269945	0.075337117	-0.071207596	0.68484202	0.080511106	0.14948475	0.02010923	0.090983012	0.015723579	0.70115206	0.11324494	0.065749655	-0.064044062	0.074291936	-0.025370112	0.65283936	0.038481427	0.083989997	0.20446547	0.39778394	-0.089432466	0.56792097	0.4532639	0.15590854	0.19700799	0.40216616	0.031180101	0.54881341	0.426909	0.02733178	0.30562819	0.76744415	-0.15179266	0.3752364	0.76670359	0.19278474	0.39597785	0.81098851	-0.12518782	0.44482063	0.8212368	0.11903893	0.23916675	0.88959854	0.038179738	0.37911854	1.3032248	-0.16559406	0.34662513	1.2789626	0.19591424	0.28970943	1.33101	0.0079946782	0.42057838	0.97909717	-0.25345378	0.18547192	1.0084282	0.24389681	0.66238342	0.95476921	-0.18311001	0.22873223	0.77989977	0.30584298
269	1.072	0.1189668	0.0085405827	-0.043301153	0.82387207	0.11070422	0.13692412	0.016789679	0.076872001	-0.071548964	0.6891996	0.078106839	0.1476185	0.021828325	0.092588888	0.01533627	0.70547695	0.1109592	0.064027098	-0.062609525	0.076992542	-0.025918733	0.65664795	0.036449578	0.08223996	0.20992889	0.39720709	-0.089453484	0.57466231	0.45198997	0.15549894	0.20304884	0.40140352	0.031132554	0.55603451	0.42702089	0.027055289	0.31220944	0.76645818	-0.15122529	0.38300286	0.76625879	0.19322635	0.40267873	0.81010461	-0.12514695	0.452556	0.82028374	0.11885809	0.24644537	0.88870084	0.039746138	0.3852702	1.3023021	-0.165032	0.35347275	1.2778475	0.19657916	0.29604702	1.3299975	0.0090129151	0.42743922	0.97820194	-0.25202747	0.19261325	1.0072165	0.24426244	0.66972085	0.95503788	-0.18194329	0.23510683	0.77873021	0.3066261
270	1.076	0.11916813	0.0085893509	-0.043414512	0.82791111	0.1072797	0.13436198	0.018402545	0.078476691	-0.071924516	0.69311576	0.075574776	0.14576152	0.023714248	0.094292946	0.014916026	0.70934615	0.10848607	0.062234396	-0.061015431	0.07980262	-0.026551629	0.65989355	0.034268675	0.080566135	0.21557525	0.39661997	-0.089500142	0.58133653	0.45074047	0.1551057	0.2092236	0.40056592	0.031159085	0.56327293	0.4271231	0.026799947	0.31890754	0.76549258	-0.15066267	0.39077242	0.76585248	0.19368155	0.40947065	0.80923468	-0.12506645	0.46032526	0.81940963	0.1187169	0.25370726	0.88788198	0.041165141	0.3914549	1.3014351	-0.16443291	0.3603772	1.2767918	0.19727398	0.30240948	1.3289976	0.010070009	0.4342357	0.97738678	-0.2505829	0.19982322	1.0060454	0.24463253	0.67696623	0.95519636	-0.18080361	0.24172487	0.77761997	0.3074157
271	1.08	0.11936502	0.0086346156	-0.043564262	0.83149195	0.10370446	0.13165096	0.020118736	0.080144621	-0.072358557	0.69661336	0.072913637	0.14390547	0.025707436	0.096049317	0.014430963	0.71265498	0.10583183	0.06035724	-0.059230193	0.082739608	-0.027249214	0.66252644	0.032010379	0.079012298	0.22141809	0.39601212	-0.089569816	0.58797624	0.44953684	0.15466629	0.21533148	0.39967929	0.031381082	0.57047177	0.42718569	0.026529522	0.32572005	0.76453998	-0.15010024	0.39853583	0.76545646	0.19412138	0.41635611	0.8083737	-0.12494752	0.46813737	0.81862641	0.11862256	0.26093473	0.88713446	0.042474037	0.39767073	1.300623	-0.1637962	0.36733167	1.2757927	0.19799733	0.30885596	1.3280095	0.011094006	0.44102829	0.97665097	-0.24917297	0.20708896	1.0049143	0.2450029	0.68412423	0.95523846	-0.17968722	0.24851579	0.77656781	0.30820783
272	1.084	0.11955308	0.0086742859	-0.043731239	0.83460614	0.10002447	0.12877343	0.021971793	0.081863318	-0.072864792	0.69970707	0.070143723	0.14205256	0.027780311	0.097830794	0.013860238	0.71534195	0.10296246	0.058361393	-0.057253394	0.085813017	-0.027999946	0.66446142	0.029838246	0.077647199	0.22746912	0.39537218	-0.089659886	0.59463368	0.44839575	0.15411952	0.22142873	0.39879459	0.031675975	0.57752481	0.42717183	0.026243825	0.33264225	0.76360137	-0.14953705	0.40628975	0.76505208	0.19452387	0.42334074	0.80752075	-0.12478946	0.47599889	0.81794007	0.11857757	0.26810099	0.88645275	0.043706199	0.40391609	1.2998636	-0.16312306	0.37433052	1.2748454	0.19874457	0.31542979	1.3270299	0.012028522	0.44788152	0.97599551	-0.24784526	0.2144091	1.0038187	0.24537592	0.69119562	0.9551633	-0.17859383	0.25542275	0.77556117	0.30899139
273	1.088	0.11974767	0.0087096118	-0.043886116	0.83731188	0.096207702	0.12568093	0.024003391	0.083620818	-0.073450543	0.7024165	0.067345825	0.14024305	0.029921271	0.099617917	0.013196021	0.71748709	0.099863665	0.056209915	-0.055110231	0.089024821	-0.028794653	0.66572475	0.027974978	0.076501403	0.23373501	0.39469467	-0.089772905	0.60131926	0.44731348	0.15344293	0.22772392	0.39795386	0.031820102	0.58427882	0.42703447	0.025991586	0.33967069	0.76267669	-0.14897443	0.4140442	0.76462927	0.19488066	0.43043498	0.80667782	-0.12459089	0.48390822	0.81734387	0.11858416	0.27518935	0.88583093	0.044885832	0.41019179	1.299156	-0.16241415	0.38136988	1.2739531	0.19951167	0.3221297	1.3260573	0.012862187	0.45484895	0.97542036	-0.24662612	0.22181996	1.0027586	0.24575655	0.69817393	0.9549761	-0.1775294	0.26244634	0.77458789	0.30976082
